<svg xmlns="http://www.w3.org/2000/svg" xmlns:xlink="http://www.w3.org/1999/xlink" width="30" height="40" version="1.1" viewBox="0 0 30 40"><title>fullscreen-dark</title><desc>Created with Sketch.</desc><g id="Page-1" fill="none" fill-rule="evenodd" stroke="none" stroke-width="1"><g id="fullscreen-dark" fill="#000"><g transform="translate(4.000000, 12.000000)"><path id="top-left" d="M1,0 L6,0 L6,2 L2,2 L2,6 L0,6 L0,0 L1,0 Z"/><path id="bottom-left" d="M1,10 L6,10 L6,12 L2,12 L2,16 L0,16 L0,10 L1,10 Z" transform="translate(3.000000, 13.000000) scale(1, -1) translate(-3.000000, -13.000000)"/><path id="top-right" d="M17,0 L22,0 L22,2 L18,2 L18,6 L16,6 L16,0 L17,0 Z" transform="translate(19.000000, 3.000000) scale(-1, 1) translate(-19.000000, -3.000000)"/><path id="bottom-right" d="M17,10 L22,10 L22,12 L18,12 L18,16 L16,16 L16,10 L17,10 Z" transform="translate(19.000000, 13.000000) scale(-1, -1) translate(-19.000000, -13.000000)"/></g></g></g></svg>